<svg width="110" height="22" viewBox="0 0 110 22" fill="none" xmlns="http://www.w3.org/2000/svg">
<path d="M7.28115 20.9369H3.18494V10.6164H0.394531V7.25631H3.18483V4.86534C3.18483 2.03203 4.41899 0 8.50411 0C9.36811 0 10.7246 0.176011 10.7246 0.176011V3.29608H9.29985C7.84817 3.29608 7.28137 3.74237 7.28137 4.9762V7.25631H10.6702L10.3684 10.6164H7.28126L7.28115 20.9369ZM16.68 6.98779C16.6203 6.98779 16.5589 6.98999 16.4981 6.99153C12.6999 6.99153 10.9621 9.87911 10.9621 13.9781C10.9621 19.1417 13.2163 21.2084 16.5278 21.2084C18.4225 21.2084 19.6673 20.4024 20.4239 18.8983V20.9383H24.32V7.25774H20.4239V9.36163C19.8061 8.00804 18.5265 7.00383 16.68 6.98779ZM17.6706 10.2205C19.2659 10.2205 20.2234 11.3451 20.2234 13.258L20.2271 15.2118C20.2271 16.5012 19.4363 18.0095 17.6706 18.0095C14.9562 18.0095 15.0287 15.0473 15.0287 14.0606C15.0287 10.7418 16.475 10.2205 17.6706 10.2205ZM25.8934 14.0988C25.8934 12.4363 25.8147 6.99669 32.8267 6.99669C35.6415 6.99669 36.8169 7.90125 36.8169 7.90125L35.8722 10.8626C35.8722 10.8626 34.6984 10.2093 33.1688 10.2093C31.2098 10.2093 29.9598 11.3571 29.9598 13.3766L29.962 14.8247C29.962 16.7652 31.1681 18.0605 33.1729 18.0605C34.5663 18.0605 35.8506 17.4011 35.8506 17.4011L36.7928 20.3005C36.7928 20.3005 35.7181 21.2108 32.8464 21.2108C26.1698 21.2108 25.8934 16.3304 25.8934 14.0988ZM59.661 6.99153C63.4593 6.99153 65.2245 9.87911 65.2245 13.9781C65.2245 19.1417 62.9702 21.2084 59.6587 21.2084C57.764 21.2084 56.3634 20.4025 55.6068 18.8983V20.9383L51.7598 20.9368V0.415965L55.8444 0.0559234V9.17628C56.4339 7.58065 58.3712 6.99153 59.661 6.99153ZM58.5158 10.2205C56.9206 10.2205 55.8444 11.3451 55.8444 13.258L55.8406 15.2118C55.8382 16.5012 56.5859 18.0095 58.5158 18.0095C61.2303 18.0095 61.1578 15.0473 61.1578 14.0606C61.1578 10.7418 59.7116 10.2205 58.5158 10.2205ZM43.9039 7.00285C39.5959 7.00285 37.3215 9.37679 37.3215 13.5955V14.3794C37.3215 19.8549 40.5154 21.2646 44.3232 21.2646C48.0244 21.2646 49.6997 20.2184 49.6997 20.2184L48.9353 17.4321C48.9353 17.4321 46.9647 18.2795 44.8129 18.2795C42.5823 18.2795 41.6229 17.7049 41.377 15.5383H50.0262V13.303C50.0262 8.72669 47.4738 7.00285 43.9039 7.00285ZM44.0077 9.79287C45.499 9.79287 46.4653 10.7171 46.4122 12.8605H41.3845C41.4717 10.6046 42.5138 9.79287 44.0077 9.79287ZM73.369 6.98406C68.9449 6.98406 66.6159 9.5038 66.6159 14.0193C66.6159 20.2148 70.6306 21.2121 73.3764 21.2121C77.3959 21.2121 80.0701 19.025 80.0701 14.0756C80.0701 8.92413 77.0633 6.98406 73.369 6.98406ZM73.3133 10.2317C75.2586 10.2317 76.0295 11.7032 76.0295 13.3781V14.8182C76.0295 16.8472 74.9509 18.0209 73.3059 18.0209C71.7675 18.0209 70.6863 16.923 70.6863 14.8182V13.3781C70.6863 11.1333 71.9729 10.2317 73.3133 10.2317ZM88.2073 6.98406C83.7833 6.98406 81.4542 9.5038 81.4542 14.0193C81.4542 20.2148 85.469 21.2121 88.2147 21.2121C92.2342 21.2121 94.9085 19.025 94.9085 14.0756C94.9085 8.92413 91.9015 6.98406 88.2073 6.98406ZM88.1517 10.2317C90.097 10.2317 90.8677 11.7032 90.8677 13.3781V14.8182C90.8677 16.8472 89.7891 18.0209 88.1443 18.0209C86.6059 18.0209 85.5246 16.923 85.5246 14.8182V13.3781C85.5246 11.1333 86.8112 10.2317 88.1517 10.2317ZM96.452 20.9369V0.415965L100.548 0.0559234V13.8103L104.613 7.25631H108.939L104.699 14.0444L109.102 20.9369H104.764L100.548 14.2443V20.9369H96.452Z" fill="#F6F5F4"/>
</svg>
