<svg width="94" height="71" viewBox="0 0 94 71" fill="none" xmlns="http://www.w3.org/2000/svg">
<path d="M5.17165 47.2423C5.88733 45.2561 8.13428 43.646 10.1904 43.646H21.3589C23.415 43.646 24.5016 45.2561 23.7859 47.2423L19.8984 58.0313C19.1827 60.0175 16.9357 61.6276 14.8796 61.6276H3.71108C1.655 61.6276 0.5684 60.0175 1.28408 58.0313L5.17165 47.2423Z" fill="#1A1A1A"/>
<path d="M57.734 25.4245C58.4497 23.4383 60.6967 21.8281 62.7527 21.8281H73.9213C75.9774 21.8281 77.064 23.4383 76.3483 25.4245L72.4607 36.2134C71.7451 38.1996 69.4981 39.8098 67.442 39.8098H56.2735C54.2174 39.8098 53.1308 38.1996 53.8465 36.2134L57.734 25.4245Z" fill="#1A1A1A"/>
<path d="M43.2521 3.59633C43.9678 1.61013 46.2148 0 48.2708 0H90.7114C92.7675 0 93.8541 1.61013 93.1384 3.59633L89.2508 14.3853C88.5351 16.3715 86.2882 17.9816 84.2321 17.9816H41.7916C39.7355 17.9816 38.6489 16.3715 39.3646 14.3853L43.2521 3.59633Z" fill="#1A1A1A"/>
<path d="M9.12644 21.8281H51.567C53.6231 21.8281 54.7097 23.4383 53.994 25.4245L50.1064 36.2134L39.2212 66.4226C38.5055 68.4088 36.2586 70.0189 34.2025 70.0189H23.0339C20.9779 70.0189 19.8913 68.4088 20.6069 66.4226L29.2954 42.3099C29.7339 41.093 28.8322 39.8098 27.5388 39.8098H2.64716C0.591082 39.8098 -0.495522 38.1996 0.220159 36.2134L4.10773 25.4245C4.82341 23.4383 7.07036 21.8281 9.12644 21.8281Z" fill="#1A1A1A"/>
</svg>
