<svg width="142" height="34" viewBox="0 0 142 34" fill="none" xmlns="http://www.w3.org/2000/svg">
<path fill-rule="evenodd" clip-rule="evenodd" d="M17.6103 0.118217C8.28678 0.118217 0.728516 7.67648 0.728516 17C0.728516 24.1519 5.17825 30.2659 11.4581 32.7257C11.3106 31.39 11.1772 29.3358 11.5167 27.8776C11.8235 26.5601 13.4962 19.4863 13.4962 19.4863C13.4962 19.4863 12.9913 18.475 12.9913 16.9799C12.9913 14.6325 14.3519 12.88 16.046 12.88C17.4863 12.88 18.1819 13.9613 18.1819 15.258C18.1819 16.1824 17.8063 17.3989 17.4108 18.6798C17.1866 19.4059 16.956 20.1528 16.7838 20.8789C16.3861 22.5591 17.6265 23.9294 19.2837 23.9294C22.2842 23.9294 24.5906 20.7657 24.5906 16.1989C24.5906 12.1568 21.6862 9.33072 17.539 9.33072C12.7355 9.33072 9.91611 12.9336 9.91611 16.6569C9.91611 18.1079 10.475 19.6637 11.1725 20.5095C11.3105 20.6767 11.3307 20.8231 11.2896 20.9937C11.2173 21.2943 11.0953 21.7899 10.9926 22.2072C10.9131 22.53 10.8451 22.8059 10.8207 22.9083C10.7471 23.2173 10.5761 23.2829 10.2561 23.134C8.1477 22.1526 6.82945 19.0699 6.82945 16.5939C6.82945 11.2687 10.6987 6.37802 17.9839 6.37802C23.8402 6.37802 28.3912 10.5511 28.3912 16.1281C28.3912 21.9462 24.7228 26.6286 19.6311 26.6286C17.9204 26.6286 16.3122 25.7399 15.7617 24.6901C15.7617 24.6901 14.9152 27.9133 14.71 28.7032C14.3289 30.1696 13.3 32.0076 12.6118 33.1289C14.1913 33.618 15.8699 33.8817 17.6103 33.8817C26.9339 33.8817 34.4922 26.3235 34.4922 17C34.4922 7.67648 26.9339 0.118217 17.6103 0.118217ZM56.35 12.1728H60.8214V26.2178H56.35V12.1728ZM66.0619 12.1728H61.7551V26.2178H66.2265V18.4546C66.2265 16.7264 67.2141 15.4919 68.6954 15.4919C70.1492 15.4919 70.8899 16.507 70.8899 17.9883V26.2178H75.3612V17.083C75.3612 13.9558 73.5507 11.7613 70.4784 11.7613C68.5307 11.7613 67.1866 12.5842 66.1441 14.093H66.0619V12.1728ZM61.2671 8.41539C61.2671 6.93399 60.0662 5.73323 58.5849 5.73323C57.1037 5.73323 55.9028 6.93399 55.9028 8.41539C55.9028 9.89665 57.1037 11.0974 58.5849 11.0974C60.0662 11.0974 61.2671 9.89665 61.2671 8.41539ZM106.365 11.9534C106.536 11.9534 106.682 11.9585 106.81 11.97V15.8669C104.253 15.6306 102.634 16.9852 102.634 19.9086V26.2178H98.163V12.1729H102.442V14.3674H102.525C103.512 12.6941 104.664 11.9534 106.365 11.9534ZM128.75 17.3581C128.53 17.3175 128.313 17.2798 128.102 17.243C126.599 16.9822 125.376 16.77 125.376 15.9043C125.376 15.0264 126.227 14.615 127.324 14.615C128.558 14.615 129.409 14.999 129.573 16.261H133.688C133.469 13.4904 131.329 11.7621 127.352 11.7621C124.032 11.7621 121.289 13.2983 121.289 16.261C121.289 19.5526 123.895 20.211 126.337 20.6225C126.532 20.657 126.725 20.6893 126.915 20.721C128.539 20.9927 129.903 21.2208 129.903 22.3507C129.903 23.256 129.052 23.7497 127.708 23.7497C126.36 23.7497 125.468 23.1792 125.194 22.0216H120.933C121.247 24.9088 123.781 26.6575 127.735 26.6575C131.411 26.6575 134.127 25.0665 134.127 21.9942C134.127 18.4005 131.219 17.7696 128.75 17.3581ZM116.407 17.6869C116.243 16.0134 115.2 14.9435 113.747 14.9435C112.046 14.9435 111.168 16.0134 110.866 17.6869H116.407ZM110.839 20.3476C111.113 22.2404 112.155 23.4198 113.993 23.4198C115.173 23.4198 115.941 22.8988 116.325 22.021H120.687C120.385 23.2828 119.562 24.4898 118.328 25.3402C117.148 26.1632 115.722 26.6295 113.939 26.6295C109.303 26.6295 106.45 23.4198 106.45 19.1681C106.45 14.9709 109.385 11.7615 113.664 11.7615C115.667 11.7615 117.258 12.42 118.465 13.5172C120.138 15.0533 120.961 17.4948 120.934 20.3476H110.839ZM142 22.9055L141.945 22.9076C141.745 22.9156 141.493 22.9257 141.259 22.9257C140.299 22.9257 139.696 22.6513 139.696 21.554V14.9704H142V12.1724H139.696V7.72848H135.334V12.1724H133.962V14.9704H135.334V22.5141C135.334 25.5317 137.199 26.382 139.805 26.382C140.8 26.382 141.551 26.3075 142 26.2199V22.9055ZM82.7674 22.9269C82.9598 22.9269 83.1657 22.92 83.3441 22.9131V26.2502C82.8857 26.3245 82.1953 26.3832 81.3136 26.3832C78.7075 26.3832 76.8422 25.5329 76.8422 22.5153V14.9716H75.3878V12.1736H76.8422V7.7297H81.2038V12.1736H83.3441V14.9716H81.2038V21.5552C81.2038 22.6525 81.8075 22.9269 82.7674 22.9269ZM93.087 17.6869C92.9225 16.0135 91.8799 14.9435 90.426 14.9435C88.7253 14.9435 87.8475 16.0135 87.5457 17.6869H93.087ZM83.1293 19.1681C83.1293 14.9711 86.0645 11.7617 90.3438 11.7617C92.3463 11.7617 93.9374 12.42 95.1444 13.5172C96.8177 15.0534 97.6406 17.4948 97.6132 20.3477H87.5185C87.7926 22.2404 88.835 23.42 90.6731 23.42C91.8525 23.42 92.6207 22.8988 93.0046 22.021H97.3663C97.0645 23.2828 96.2416 24.4898 95.0071 25.3403C93.8277 26.1632 92.4012 26.6295 90.6181 26.6295C85.9821 26.6295 83.1293 23.42 83.1293 19.1681ZM51.3287 13.2151C51.3287 14.7788 50.3412 15.8213 48.5856 15.8213H45.1564V10.6915H48.5856C50.3137 10.6915 51.3287 11.6516 51.3287 13.2151ZM48.3943 6.60419H40.6296V26.2178H45.1564V19.6617H49.08C53.1125 19.6617 55.7186 17.0007 55.7186 13.2426C55.7186 11.2676 55.0053 9.59411 53.7434 8.41467C52.5364 7.26248 50.7807 6.60419 48.3943 6.60419Z" fill="#F6F5F4"/>
</svg>
