<svg width="90" height="32" viewBox="0 0 90 32" fill="none" xmlns="http://www.w3.org/2000/svg">
<path fill-rule="evenodd" clip-rule="evenodd" d="M89.9996 10.605V25.5193L81.9078 31.2315H76.9333V28.6926L73.2015 31.2315H68.848V28.6926L66.0492 31.2315H57.9645L55.4773 28.6926L54.855 31.2315L47.7187 31.212L44.9047 28.6926L44.5938 31.2315L36.5091 31.212L36.1983 28.6926L34.0219 31.212L21.5836 31.2315L19.0957 29.962V31.2315H12.2543L4.79128 26.4715L0.126953 21.7116V0.768555H9.76644L14.4308 5.52851H35.576V0.768555H52.99V5.52851H57.3435V8.06741L59.8314 5.52851H65.118L69.7824 0.768555H79.7327V5.52851H85.0193L89.9996 10.605ZM12.2543 7.7489H7.90084V2.98895H2.30339V20.76L5.72377 24.5677H12.2543V18.5383H7.90084V13.4618H12.2543V7.7489ZM35.576 7.7489H29.9785V18.5389H27.8021V7.7489H22.5155V18.5389H20.3391V7.7489H14.4308V24.5677H31.8448L35.576 20.76V7.7489ZM43.0391 7.7489H37.7524V24.5677H43.0391V7.7489ZM43.0391 2.98895H37.7524V5.52785H43.0391V2.98895ZM55.1664 7.7489H50.8129V2.98895H45.2161V20.76L48.6365 24.5677H55.1652V18.5383H50.8117V13.4618H55.1652L55.1664 7.7489ZM69.4703 7.7489H60.7639L57.3435 11.2394V20.76L61.0747 24.5677H69.4696V18.5383H63.2505V13.4618H69.4696L69.4703 7.7489ZM87.8168 11.2394L84.0855 7.7489H77.5556V2.98895H71.6473V24.5677H77.5556V13.4605H81.9091V24.567H87.8174L87.8168 11.2394Z" fill="#F6F5F4"/>
</svg>
