<svg width="114" height="38" viewBox="0 0 114 38" fill="none" xmlns="http://www.w3.org/2000/svg">
<path fill-rule="evenodd" clip-rule="evenodd" d="M14.7513 13.3154V17.2894L24.2491 17.2852C23.9577 19.477 23.2186 21.0817 22.0953 22.2051C20.7101 23.5903 18.5479 25.1148 14.7513 25.1148C8.89808 25.1148 4.32024 20.3976 4.32024 14.5444C4.32024 8.69115 8.89808 3.97394 14.7513 3.97394C17.9102 3.97394 20.216 5.21553 21.9179 6.81187L24.7221 4.00773C22.3487 1.73992 19.1898 0 14.7555 0C6.74007 0 0 6.52892 0 14.5444C0 22.5598 6.74007 29.0887 14.7555 29.0887C19.08 29.0887 22.3444 27.6698 24.8994 25.0092C27.5262 22.3825 28.3413 18.6957 28.3413 15.7142C28.3413 14.8273 28.2737 14.008 28.1428 13.3154H14.7513ZM94.8683 28.5189V1.06873H90.8564V28.5189H94.8683ZM39.3346 29.0936C44.5121 29.0936 48.731 25.1196 48.731 19.7267C48.731 14.2958 44.5121 10.3599 39.3346 10.3599C34.1571 10.3599 29.9382 14.2958 29.9382 19.7267C29.9382 25.1196 34.1571 29.0936 39.3346 29.0936ZM39.3346 14.0509C42.1725 14.0509 44.6177 16.3567 44.6177 19.7267C44.6177 23.0587 42.1725 25.4026 39.3346 25.4026C36.4967 25.4026 34.0515 23.063 34.0515 19.7267C34.0515 16.3567 36.4967 14.0509 39.3346 14.0509ZM59.605 29.0936C64.7825 29.0936 69.0014 25.1196 69.0014 19.7267C69.0014 14.2958 64.7825 10.3599 59.605 10.3599C54.4275 10.3599 50.2086 14.3 50.2086 19.7267C50.2086 25.1196 54.4275 29.0936 59.605 29.0936ZM59.605 14.0509C62.443 14.0509 64.8881 16.3567 64.8881 19.7267C64.8881 23.0587 62.443 25.4026 59.605 25.4026C56.7671 25.4026 54.3219 23.063 54.3219 19.7267C54.3219 16.3567 56.7671 14.0509 59.605 14.0509ZM88.4281 10.93V27.7422C88.4281 34.6596 84.3486 37.4849 79.5258 37.4849C74.986 37.4849 72.2536 34.4484 71.2232 31.9653L74.8044 30.4745C75.4421 31.9991 77.0046 33.7981 79.5216 33.7981C82.6087 33.7981 84.5218 31.8935 84.5218 28.3081V26.9609H84.3782C83.4575 28.0969 81.6838 29.0893 79.4456 29.0893C74.7622 29.0893 70.4715 25.0098 70.4715 19.7605C70.4715 14.4732 74.7622 10.3599 79.4456 10.3599C81.6796 10.3599 83.4533 11.3523 84.3782 12.4545H84.5218V10.93H88.4281ZM84.8132 19.7605C84.8132 16.4622 82.6129 14.0509 79.813 14.0509C76.9751 14.0509 74.5975 16.4622 74.5975 19.7605C74.5975 23.025 76.9751 25.4026 79.813 25.4026C82.6129 25.4026 84.8132 23.025 84.8132 19.7605ZM110.502 22.8093L113.695 24.9377C112.664 26.4623 110.181 29.089 105.891 29.089C100.569 29.089 96.5955 24.9757 96.5955 19.7222C96.5955 14.1519 100.603 10.3553 105.43 10.3553C110.291 10.3553 112.669 14.2237 113.446 16.3141L113.872 17.3784L101.351 22.5643C102.309 24.4436 103.8 25.4023 105.891 25.4023C107.985 25.4023 109.438 24.3718 110.502 22.8093ZM100.675 19.4392L109.045 15.9636C108.585 14.7938 107.2 13.9788 105.57 13.9788C103.479 13.9788 100.569 15.8243 100.675 19.4392Z" fill="#F6F5F4"/>
</svg>
