<svg width="135" height="34" viewBox="0 0 135 34" fill="none" xmlns="http://www.w3.org/2000/svg">
<path d="M43.8518 13.3048C43.8518 10.8647 41.5108 8.30562 37.4419 8.30562C32.8788 8.30562 27.8689 11.6654 27.1018 18.3712C26.3179 25.1426 30.5134 28.1515 34.7425 28.1515C38.9716 28.1515 41.186 26.4968 43.4507 24.29C41.5032 21.8346 38.9883 22.9693 38.5064 23.2194C37.7086 23.664 36.8052 23.8838 35.8924 23.8554C34.2606 23.8554 32.5952 23.1203 32.5952 20.061C43.0512 19.0239 43.8503 15.7297 43.8503 13.3048H43.8518ZM38.6696 13.7059C38.6025 14.4578 38.3036 15.745 33.0085 16.4663C34.1218 12.4859 36.2569 12.187 37.2375 12.187C37.4363 12.1779 37.6347 12.2117 37.8192 12.2861C38.0037 12.3605 38.17 12.4737 38.3069 12.6181C38.4438 12.7625 38.548 12.9347 38.6124 13.1229C38.6768 13.3111 38.7 13.511 38.6803 13.709L38.6696 13.7059ZM20.9603 14.3587L18.5293 22.0329L16.8136 8.70824C12.9856 8.70824 10.9268 11.4503 9.85311 14.3419L6.88834 22.0497L6.472 14.4243C6.24628 10.88 3.01005 8.72349 0.394531 8.72349L3.55756 28.0006C7.56853 27.9853 9.73415 25.2585 10.8673 22.3669L13.3745 15.8136C13.3974 16.0805 15.107 28.0021 15.107 28.0021C19.1363 28.0021 21.3019 25.4445 22.4625 22.6521L28.1053 8.72501C24.1325 8.72501 22.0385 11.4503 20.9573 14.3587H20.9603ZM58.6391 8.25834C56.1578 8.25834 54.2621 9.61261 52.6607 11.6013V11.5861L54.0913 0C50.794 0 48.1129 2.87631 47.5974 7.1557L45.1177 27.8511C47.0164 27.8511 49.031 27.299 50.1138 25.8944C51.0807 27.148 52.528 28.1515 54.6769 28.1515C60.2373 28.1515 64.0516 21.6654 64.0516 15.5787C64.018 10.0274 61.3369 8.27359 58.6558 8.27359L58.6391 8.25834ZM58.1205 18.2065C57.541 21.5998 55.656 23.9072 53.8427 23.9072C52.0293 23.9072 51.2287 23.0883 51.2287 23.0883C51.5794 20.1143 51.796 18.2903 52.4609 16.718C53.1259 15.1456 54.7089 12.6384 56.3575 12.6384C57.9741 12.6384 58.7062 14.7949 58.1221 18.2049L58.1205 18.2065ZM77.9192 8.70976H74.0394L74.0546 8.50845C74.3215 5.96766 74.9209 4.63016 76.8974 4.41207C78.2471 4.27786 78.8464 3.57632 78.9959 2.80768L79.4794 0.115907C71.7014 0.065579 69.2399 3.44059 68.6131 8.59233L68.5979 8.70976H68.514C67.2482 8.70976 65.8512 10.1479 65.6163 11.9704L65.5324 12.6384H68.1312L65.9503 30.7259L65.2823 33.9697C65.3662 33.9697 65.4653 33.985 65.5477 33.985C69.1926 33.8508 71.526 30.9592 72.0415 26.7622L73.7435 12.6353H74.9636C76.1623 12.6353 77.5623 11.4305 77.8063 9.42503L77.9192 8.70976ZM98.0991 8.37424C93.6199 8.37424 89.3909 11.6837 88.0946 16.8842C86.7982 22.0848 88.7625 28.2354 95.354 28.2354C101.945 28.2354 105.72 21.8301 105.72 16.4984C105.726 11.1987 102.148 8.37272 98.1006 8.37272L98.0991 8.37424ZM99.914 18.0372C99.6822 20.395 98.6481 23.9728 95.8176 23.9728C92.987 23.9728 93.3698 19.7941 93.6443 17.8038C93.9448 15.6809 95.1267 12.6552 97.6736 12.6552C99.9643 12.6552 100.179 15.3805 99.9155 18.0387L99.914 18.0372ZM127.854 14.3419L125.423 22.0161C125.357 21.4137 123.708 8.69146 123.708 8.69146C119.88 8.69146 117.831 11.4336 116.757 14.3251L113.792 22.0329C113.777 21.4808 113.376 14.4075 113.376 14.4075C113.135 10.8632 109.902 8.70671 107.276 8.70671L110.422 27.9838C114.433 27.9685 116.598 25.2417 117.732 22.3501L120.23 15.7968C120.245 16.0637 121.962 27.9853 121.962 27.9853C125.991 27.9853 128.148 25.4277 129.318 22.6353L134.965 8.70824C131.003 8.70824 128.904 11.4336 127.838 14.3419H127.854ZM81.5824 0.112858L78.3188 26.5426L77.6508 29.8032C77.7331 29.8032 77.8338 29.8185 77.9161 29.8185C81.4269 29.7681 83.925 26.6768 84.3932 22.7802L86.2736 7.61627C86.844 2.98459 84.0973 0.109807 81.5824 0.109807V0.112858Z" fill="#F6F5F4"/>
</svg>
