<svg width="115" height="26" viewBox="0 0 115 26" fill="none" xmlns="http://www.w3.org/2000/svg">
<path fill-rule="evenodd" clip-rule="evenodd" d="M32.7188 0.965597C34.2872 1.38786 35.5238 2.62448 35.9461 4.19288C36.7303 7.05823 36.7001 13.0302 36.7001 13.0302C36.7001 13.0302 36.7001 18.972 35.9461 21.8374C35.5238 23.4058 34.2872 24.6424 32.7188 25.0647C29.8534 25.8187 18.392 25.8187 18.392 25.8187C18.392 25.8187 6.96082 25.8187 4.06531 25.0345C2.49691 24.6122 1.26028 23.3756 0.838023 21.8072C0.0839844 18.972 0.0839844 13.0001 0.0839844 13.0001C0.0839844 13.0001 0.0839844 7.05823 0.838023 4.19288C1.26028 2.62448 2.52707 1.3577 4.06531 0.935435C6.93066 0.181396 18.392 0.181396 18.392 0.181396C18.392 0.181396 29.8534 0.181396 32.7188 0.965597ZM24.2716 13L14.7406 18.4894V7.51062L24.2716 13ZM53.2596 23.5263C52.5357 23.0437 52.023 22.2897 51.7214 21.234C51.4198 20.2085 51.2689 18.8211 51.2689 17.1321V14.8096C51.2689 13.0904 51.4499 11.703 51.7817 10.6473C52.1436 9.59168 52.6865 8.83764 53.4104 8.35505C54.1645 7.87247 55.1296 7.63118 56.3361 7.63118C57.5124 7.63118 58.4776 7.87247 59.2014 8.35505C59.9253 8.83764 60.438 9.62184 60.7698 10.6473C61.1016 11.6728 61.2826 13.0603 61.2826 14.8096V17.1321C61.2826 18.8513 61.1318 20.2085 60.8 21.2642C60.4682 22.2897 59.9555 23.0739 59.2316 23.5565C58.5077 24.0391 57.5124 24.2804 56.2758 24.2804C55.009 24.2502 53.9835 24.0089 53.2596 23.5263ZM57.3314 20.9927C57.5425 20.48 57.633 19.6053 57.633 18.429V13.4222C57.633 12.2761 57.5425 11.4315 57.3314 10.8886C57.1203 10.3457 56.7885 10.1044 56.2758 10.1044C55.7932 10.1044 55.4312 10.3759 55.2503 10.8886C55.0391 11.4315 54.9487 12.2761 54.9487 13.4222V18.429C54.9487 19.6053 55.0391 20.48 55.2503 20.9927C55.4312 21.5055 55.7932 21.7769 56.3059 21.7769C56.7885 21.7769 57.1203 21.5357 57.3314 20.9927ZM108.938 17.1622V17.9766C108.938 19.0021 108.968 19.7863 109.028 20.299C109.089 20.8118 109.209 21.2039 109.42 21.415C109.601 21.6563 109.903 21.7769 110.325 21.7769C110.868 21.7769 111.23 21.5658 111.441 21.1435C111.652 20.7213 111.743 20.0276 111.773 19.0322L114.88 19.2132C114.91 19.364 114.91 19.545 114.91 19.7863C114.91 21.2642 114.518 22.3802 113.703 23.104C112.889 23.8279 111.743 24.1899 110.265 24.1899C108.485 24.1899 107.249 23.6168 106.525 22.5008C105.801 21.3848 105.439 19.6656 105.439 17.313V14.508C105.439 12.0951 105.801 10.3457 106.555 9.22974C107.309 8.11376 108.576 7.57085 110.355 7.57085C111.592 7.57085 112.557 7.81215 113.221 8.26457C113.884 8.71699 114.337 9.44087 114.608 10.3759C114.88 11.341 115 12.6682 115 14.3572V17.1019H108.938V17.1622ZM109.39 10.406C109.209 10.6473 109.089 11.0093 109.028 11.522C108.968 12.0348 108.938 12.819 108.938 13.8746V15.0208H111.592V13.8746C111.592 12.8491 111.562 12.0649 111.502 11.522C111.441 10.9791 111.29 10.6172 111.109 10.406C110.928 10.1949 110.627 10.0743 110.265 10.0743C109.843 10.0441 109.571 10.1647 109.39 10.406ZM44.4524 16.8606L40.3505 1.99097H43.9397L45.3874 8.71699C45.7494 10.3759 46.0208 11.7935 46.2018 12.9698H46.2923C46.4129 12.1252 46.6844 10.7378 47.1066 8.74715L48.6147 1.99097H52.204L48.0417 16.8606V23.9787H44.4826V16.8606H44.4524ZM72.9551 7.93279V24.0089H70.1199L69.8183 22.0484H69.7278C68.9738 23.5263 67.7975 24.2804 66.2592 24.2804C65.2036 24.2804 64.4194 23.9184 63.9066 23.2247C63.3939 22.531 63.1526 21.4452 63.1526 19.9371V7.93279H66.772V19.726C66.772 20.4498 66.8625 20.9626 67.0133 21.2642C67.1641 21.5658 67.4355 21.7166 67.7975 21.7166C68.0991 21.7166 68.4007 21.6261 68.7023 21.415C69.0039 21.234 69.2151 20.9927 69.3357 20.6911V7.93279H72.9551ZM91.5044 7.93279V24.0089H88.6693L88.3676 22.0484H88.2772C87.5231 23.5263 86.3468 24.2804 84.8086 24.2804C83.7529 24.2804 82.9687 23.9184 82.456 23.2247C81.9432 22.531 81.7019 21.4452 81.7019 19.9371V7.93279H85.3213V19.726C85.3213 20.4498 85.4118 20.9626 85.5626 21.2642C85.7134 21.5658 85.9849 21.7166 86.3468 21.7166C86.6484 21.7166 86.9501 21.6261 87.2517 21.415C87.5533 21.234 87.7644 20.9927 87.8851 20.6911V7.93279H91.5044ZM79.1991 4.91655H82.7883V1.99088H72.0809V4.91655H75.6702V23.9786H79.1991V4.91655ZM102.423 8.29464C102.906 8.74706 103.268 9.47094 103.479 10.4964C103.69 11.4918 103.781 12.9094 103.811 14.7492V17.2828C103.811 19.6655 103.509 21.4451 102.936 22.561C102.363 23.677 101.488 24.2501 100.252 24.2501C99.5581 24.2501 98.9549 24.0691 98.3818 23.7675C97.8087 23.4357 97.3865 23.0135 97.115 22.4706H97.0245L96.6626 23.9786H93.6766V1.17651H97.1753V9.65191H97.2055C97.5071 9.04868 97.9595 8.53593 98.5326 8.17399C99.1057 7.78189 99.7391 7.60092 100.403 7.60092C101.247 7.60092 101.941 7.84222 102.423 8.29464ZM100.011 19.7862C100.101 19.1226 100.161 18.2178 100.161 17.0415H100.191V14.9302C100.191 13.6936 100.161 12.7284 100.071 12.0347C99.9804 11.3711 99.8597 10.8885 99.6486 10.5869C99.4676 10.3155 99.166 10.1647 98.8041 10.1647C98.4723 10.1647 98.1405 10.3155 97.8389 10.5869C97.5373 10.8885 97.3261 11.2505 97.2055 11.6727V20.7815C97.3563 21.053 97.5674 21.2641 97.8087 21.4149C98.05 21.5657 98.3215 21.626 98.6231 21.626C98.985 21.626 99.2867 21.4752 99.5279 21.2038C99.7391 20.9323 99.92 20.4497 100.011 19.7862Z" fill="#F6F5F4"/>
</svg>
